<?xml version="1.0"?>
<svg id="_圖層_1" data-name="圖層 1" xmlns="http://www.w3.org/2000/svg" viewBox="0 0 216.76 54.19">
  <g id="CMYK_Illumio_Logo-6" data-name="CMYK Illumio Logo">
    <g>
      <path d="M73.7,15.5h-8.67v-7.23h8.67v7.23ZM65.03,18.82h8.67v26.3h-8.67v-26.3Z" fill="#fff"></path>
      <rect x="77.6" y="8.27" width="8.67" height="36.85" fill="#fff"></rect>
      <rect x="90.17" y="8.27" width="8.67" height="36.85" fill="#fff"></rect>
      <g>
        <path d="M128.76,18.69v26.43h-8.67v-3.59c-1.73,2.66-4.89,4.38-8.08,4.38-7.57,0-9.7-4.38-9.7-11.29v-15.94h8.67v16.15c0,2.51,2.04,4.55,4.55,4.55s4.55-2.04,4.55-4.55v-16.15h8.67Z" fill="#fff"></path>
        <path d="M174.28,29.32v15.81h-8.67v-16.48c0-2.16-1.75-3.9-3.9-3.9s-3.9,1.75-3.9,3.9v16.48h-8.67v-16.48c0-2.16-1.75-3.9-3.9-3.9s-3.9,1.75-3.9,3.9v16.48h-8.67v-26.43h8.67v3.59c1.59-2.66,4.35-4.38,7.4-4.38,3.32,0,6.24,1.06,7.7,4.25,1.86-2.79,4.92-4.38,8.23-4.25,8.37,0,9.61,6.37,9.61,11.42" fill="#fff"></path>
        <path d="M186.42,15.5h-8.67v-7.23h8.67v7.23ZM177.75,18.82h8.67v26.3h-8.67v-26.3Z" fill="#fff"></path>
        <path d="M202.68,18.03c7.7,0,13.95,6.11,14.08,13.81,0,7.7-6.11,13.95-13.81,14.08-7.7,0-13.95-6.11-14.08-13.81v-.13c-.27-7.44,5.58-13.68,13.02-13.95h.8M202.68,39.28c3.98,0,5.31-3.98,5.31-7.31s-1.33-7.31-5.31-7.31-5.18,3.98-5.18,7.31,1.2,7.31,5.18,7.31" fill="#fff"></path>
        <path d="M48.61,48.61H5.58V5.58h43.03v43.03ZM2.6,0C1.17,0,0,1.17,0,2.6v48.99c0,1.43,1.17,2.6,2.6,2.6h48.99c1.43,0,2.6-1.17,2.6-2.6V2.6c0-1.43-1.17-2.6-2.6-2.6H2.6Z" fill="#fff"></path>
        <path d="M31.82,23.21l2.62-2.62h6.92c.72,0,1.3-.58,1.3-1.3v-7.15c0-.72-.58-1.3-1.3-1.3h-7.15c-.72,0-1.3.58-1.3,1.3v6.92l-2.62,2.62h-7.77l-4.47-4.47v-3.67c0-.72-.58-1.3-1.3-1.3h-3.9c-.72,0-1.3.58-1.3,1.3v3.9c0,.72.58,1.3,1.3,1.3h3.67l4.47,4.47v7.77l-4.47,4.47h-3.67c-.72,0-1.3.58-1.3,1.3v3.9c0,.72.58,1.3,1.3,1.3h3.9c.72,0,1.3-.58,1.3-1.3v-3.67l4.47-4.47h7.77l2.62,2.62v6.92c0,.72.58,1.3,1.3,1.3h7.15c.72,0,1.3-.58,1.3-1.3v-7.15c0-.72-.58-1.3-1.3-1.3h-6.92l-2.62-2.62v-7.77Z" fill="#fff"></path>
      </g>
    </g>
  </g>
</svg>